<svg xmlns="http://www.w3.org/2000/svg" height="{{ .size }}" viewBox="0 0 268.566 268.566">
    <path d="M210.349 158.804v-31.151h28.809c6.701 0 10.03-8.154 5.26-12.847L129.904 2.153a7.5 7.5 0 00-10.519 0L4.87 114.807c-4.777 4.699-1.432 12.847 5.26 12.847h28.809v133.412a7.5 7.5 0 007.5 7.5h50.216a7.5 7.5 0 007.5-7.5v-55.114h37.891a37.703 37.703 0 003.086 6.44v48.674a7.5 7.5 0 007.5 7.5h50.191l.015-.001.01.001a7.504 7.504 0 005.001-1.933c.213-.192 46.716-46.702 46.918-46.905 7.208-7.208 11.177-16.79 11.177-26.982 0-28.557-30.27-46.932-55.595-33.942zm-70.602 32.146H96.656v.001a7.5 7.5 0 00-7.5 7.5v55.114H53.939V120.153a7.5 7.5 0 00-7.5-7.5h-17.99l96.196-94.632 96.195 94.632h-17.991a7.5 7.5 0 00-7.5 7.5v38.669c-24.714-12.776-54.332 4.518-55.602 32.128zm20.386 62.615v-24.558c5.445 5.451 13.464 13.451 24.579 24.558h-24.579zm84.029-44.445l-41.338 41.338c-39.168-39.168-41.291-41.231-42.923-43.094-7.52-9.204-6.755-22.654 1.585-30.992 8.904-8.917 23.617-9.131 32.749.001l3.287 3.287a7.5 7.5 0 0010.606 0l3.287-3.287c9.03-9.028 23.72-9.027 32.748 0 9.049 9.049 9.049 23.697-.001 32.747z"/>
</svg>