<svg xmlns="http://www.w3.org/2000/svg" viewBox="0 0 1000 1000"  height="{{ .size }}" width="{{ .size }}" >
<path fill="{{ .color }}" d="M500 10C229.4 10 10 229.4 10 500s219.4 490 490 490 490-219.4 490-490c0-270.7-219.4-490-490-490zM274.3 804.8c-44 0-79.8-35.5-79.8-79.5 0-43.7 35.8-79.7 79.8-79.7 44.2 0 79.9 36 79.9 79.7 0 44-35.7 79.5-79.9 79.5zm200.5.7c0-75.2-29.2-145.8-82.1-198.6-52.9-53-123.3-82.3-198.1-82.3V409.7c218.1 0 395.7 177.6 395.7 395.9H474.8zm203.9 0c0-267.2-217.1-484.5-484-484.5V206C525.1 206 794 475 794 805.5H678.7z"/>
</svg>